<?xml version="1.0" standalone="no"?>
<!DOCTYPE svg PUBLIC "-//W3C//DTD SVG 20010904//EN"
 "http://www.w3.org/TR/2001/REC-SVG-20010904/DTD/svg10.dtd">
<svg version="1.0" xmlns="http://www.w3.org/2000/svg"
 width="700.000000pt" height="700.000000pt" viewBox="0 0 700.000000 700.000000"
 preserveAspectRatio="xMidYMid meet">
<metadata>
Created by potrace 1.14, written by Peter Selinger 2001-2017
</metadata>
<g transform="translate(0.000000,700.000000) scale(0.100000,-0.100000)"
fill="#000000" stroke="none">
<path d="M800 6631 c-119 -32 -202 -81 -287 -169 -62 -64 -96 -122 -129 -218
-24 -73 -28 -92 -42 -199 -13 -104 -6 -5303 7 -5358 30 -126 126 -256 227
-307 44 -23 60 -25 169 -25 140 1 174 6 264 42 124 49 210 115 450 342 427
404 685 662 850 851 41 47 77 87 80 90 37 32 242 306 325 433 180 278 242 543
166 715 -55 123 -149 190 -470 333 -316 142 -426 284 -416 538 5 108 26 181
87 303 31 63 113 194 151 243 201 256 423 491 700 738 83 74 88 79 173 152 32
28 79 68 105 90 25 22 66 56 90 75 24 19 48 40 54 45 48 45 464 368 676 526
93 69 326 239 360 262 14 9 63 44 110 77 122 88 150 106 405 278 127 85 232
156 234 158 3 2 -958 4 -2135 3 -2008 0 -2143 -1 -2204 -18z"/>
<path d="M6159 6646 c-2 -2 -17 -6 -34 -9 -140 -22 -292 -111 -450 -262 -33
-32 -134 -128 -225 -214 -485 -459 -809 -804 -1011 -1076 -156 -209 -231 -338
-284 -485 -106 -297 -54 -490 166 -621 37 -22 134 -71 215 -109 234 -108 282
-137 359 -214 154 -154 169 -399 40 -656 -138 -273 -476 -654 -950 -1069 -71
-62 -141 -123 -155 -135 -22 -20 -229 -189 -348 -285 -23 -18 -99 -78 -169
-132 -70 -54 -132 -102 -138 -107 -133 -108 -761 -556 -1062 -758 l-245 -164
2138 1 c2071 0 2141 1 2212 19 107 28 187 75 268 155 99 99 152 211 181 380
10 58 11 5333 1 5387 -28 153 -134 292 -258 339 -37 14 -76 19 -148 19 -54 0
-101 -2 -103 -4z"/>
</g>
</svg>
