<svg width="500" height="500" viewBox="0 0 500 500" fill="none" xmlns="http://www.w3.org/2000/svg">
<g clip-path="url(#clip0_1238_202)">
<path d="M94.949 208.985C134.659 208.541 170.819 195.748 202.321 172.749C218.442 160.991 234.193 148.641 249.796 136.144C265.399 123.646 281.15 111.37 297.27 99.5379C328.772 76.5392 364.933 63.7457 404.643 63.302C437.697 62.9322 469.051 69.4399 499 87.8536C493.602 38.4544 451.821 0 401.019 0H98.5725C44.1469 0 0 44.1487 0 98.5765V184.064C30.1707 202.847 61.6725 209.355 94.949 208.985Z" fill="#22797E"/>
<path d="M500 132.781C469.805 114.114 438.277 107.647 404.973 108.015C365.231 108.456 329.041 121.169 297.513 144.025C281.38 155.709 265.616 167.982 250 180.402C234.384 192.822 218.62 205.021 202.487 216.779C170.959 239.635 134.769 252.348 95.0267 252.789C61.7229 253.157 30.1954 246.616 0 228.023V273.219C30.1954 291.886 61.7229 298.353 95.0267 297.985C134.769 297.544 170.959 284.831 202.487 261.975C218.62 250.291 234.384 238.018 250 225.598C265.616 213.178 281.38 200.979 297.513 189.221C329.041 166.365 365.231 153.652 404.973 153.211C438.277 152.843 469.805 159.384 500 177.977V132.781Z" fill="#22797E"/>
<path d="M500 222.911C469.805 204.147 438.277 197.645 404.973 198.015C365.231 198.458 329.041 211.239 297.513 234.214C281.38 245.961 265.616 258.298 250 270.783C234.384 283.268 218.62 295.532 202.487 307.352C170.959 330.327 134.769 343.108 95.0267 343.551C61.7229 343.921 30.1954 337.346 0 318.655V364.089C30.1954 382.853 61.7229 389.355 95.0267 388.985C134.769 388.542 170.959 375.761 202.487 352.786C218.62 341.039 234.384 328.702 250 316.217C265.616 303.732 281.38 291.468 297.513 279.648C329.041 256.673 365.231 243.892 404.973 243.449C438.277 243.079 469.805 249.654 500 268.345V222.911Z" fill="#CE4F00"/>
<path d="M405.051 291.015C365.341 291.459 329.181 304.252 297.679 327.251C281.558 339.009 265.807 351.359 250.204 363.856C234.601 376.354 218.85 388.63 202.73 400.462C171.228 423.461 135.067 436.254 95.3574 436.698C62.3028 437.068 30.9489 430.56 1 412.146C6.39819 461.546 48.1787 500 98.9809 500H401.428C455.853 500 500 455.851 500 401.423V315.936C469.829 297.153 438.328 290.645 405.051 291.015Z" fill="#CE4F00"/>
</g>
<defs>
<clipPath id="clip0_1238_202">
<rect width="500" height="500" fill="white"/>
</clipPath>
</defs>
</svg>
