<svg width="520" height="520" viewBox="0 0 520 520" fill="none" xmlns="http://www.w3.org/2000/svg">
<path d="M366.54 40.9426L387.331 28L362.841 28H63.7729C53.7229 28 37.9434 30.18 24.6276 45.49C17.6909 53.4655 14.6498 63.5525 13.2597 71.4224C11.9512 78.8305 11.9909 84.9958 12.0026 86.8128C12.0035 86.9549 12.0043 87.0705 12.0042 87.1579C12.0023 89.0871 12.004 296.441 12.0048 398.35L12.0052 452.947C12.0052 463.375 15.8707 472.939 21.6308 479.952C27.2957 486.849 35.4535 492 44.3762 491.997C44.8145 491.997 45.2602 491.998 45.7131 492C51.4508 492.014 58.3544 492.032 66.2519 489.523C74.8479 486.792 84.1141 481.279 95.0972 470.758C99.4698 466.569 104.016 462.268 108.673 457.863C140.911 427.368 178.449 391.859 200.375 353.709L200.497 353.495L200.604 353.274C210.675 332.501 212.611 317.095 207.258 305.139C202.017 293.434 190.677 287.309 180.726 282.692C178.421 281.623 176.173 280.624 173.995 279.655C165.954 276.079 158.855 272.922 153.293 268.221C149.987 265.426 147.51 262.268 145.986 258.392C144.457 254.505 143.713 249.457 144.541 242.636L144.541 242.631C145.318 236.184 148.635 228.219 154.578 218.915C160.463 209.702 168.61 199.657 178.427 189.123C198.058 168.057 223.863 145.565 250.219 124.533C302.914 82.48 357.082 46.8307 366.54 40.9426Z" fill="#07778F" stroke="#7AD0EA" stroke-width="14"/>
<path d="M153.301 479.057L132.51 492L157 492H456.068C466.118 492 481.898 489.82 495.213 474.51C502.15 466.534 505.191 456.448 506.581 448.578C507.89 441.169 507.85 435.004 507.838 433.187C507.838 433.045 507.837 432.93 507.837 432.842C507.839 430.913 507.837 223.559 507.836 121.65L507.836 67.0526C507.836 56.6252 503.97 47.0608 498.21 40.0481C492.545 33.1514 484.388 28.0003 475.465 28.0026C475.027 28.0027 474.581 28.0016 474.128 28.0004C468.39 27.9856 461.487 27.9678 453.589 30.4769C444.993 33.2079 435.727 38.721 424.744 49.2423C420.371 53.4311 415.825 57.7316 411.168 62.1367C378.93 92.6323 341.392 128.141 319.466 166.291L319.344 166.505L319.237 166.726C309.166 187.499 307.23 202.905 312.583 214.861C317.824 226.566 329.164 232.691 339.115 237.308C341.421 238.377 343.668 239.377 345.847 240.345C353.888 243.921 360.986 247.078 366.548 251.779C369.854 254.574 372.331 257.732 373.855 261.608C375.384 265.495 376.128 270.543 375.3 277.364L375.3 277.369C374.523 283.816 371.206 291.781 365.263 301.085C359.378 310.298 351.231 320.343 341.414 330.877C321.783 351.943 295.978 374.435 269.622 395.467C216.927 437.52 162.759 473.169 153.301 479.057Z" fill="#DB572F" stroke="#FFBA89" stroke-width="14"/>
</svg>
