<svg width="350" height="349" viewBox="0 0 350 349" fill="none" xmlns="http://www.w3.org/2000/svg">
<path d="M265.856 1.00002C250.935 10.2909 97.6193 111.755 91.6945 160.92C85.8794 208.884 165.755 182.444 135.546 244.771C116.637 277.676 82.2216 308.085 55.094 334.077C38.9453 349.549 29.2066 348.996 19.6194 348.998C10.0322 349 0.0039702 337.69 0.00402473 324.213C0.00407926 310.736 0.00135667 43.2661 0.0032451 41.3408C0.00513353 39.4155 -0.440579 22.8715 8.43509 12.6648C17.3108 2.4581 27.6967 1.00002 34.6182 1.00002C87.6105 1.00004 200.247 1.00009 265.856 1.00002C243.737 1.00014 352.734 0.999936 265.856 1.00002Z" fill="#3565B1"/>
<path d="M84.1435 349C99.0653 339.709 252.381 238.245 258.306 189.08C264.121 141.116 184.245 167.556 214.454 105.229C233.363 72.3241 267.778 41.9147 294.906 15.9231C311.055 0.450708 320.793 1.00447 330.381 1.00201C339.968 0.999548 349.996 12.3102 349.996 25.7873C349.996 39.2644 349.999 306.734 349.997 308.659C349.995 310.585 350.441 327.128 341.565 337.335C332.689 347.542 322.303 349 315.382 349C262.39 349 149.753 349 84.1435 349C106.263 349 -2.73351 349 84.1435 349Z" fill="#D13624"/>
</svg>
