<svg width="350" height="350" viewBox="0 0 350 350" fill="none" xmlns="http://www.w3.org/2000/svg">
<path d="M268.15 12.7605C254.258 20.9638 113.448 107.717 106.638 151.094C99.9825 193.465 173.696 170.132 144.327 225.156C126.14 254.216 108.263 283.546 86.0137 308.001C80.0934 314.541 73.7088 320.074 66.7824 324.524C51.111 334.546 0.0339397 359.195 12.4163 280.412C55.0192 9.20057 54.9031 9.97444 268.305 10.5549C270.356 10.5549 270.704 11.2127 268.15 12.7605Z" fill="#D13624"/>
<path d="M85.1236 340.505C99.015 332.302 239.825 245.548 246.636 202.171C253.291 159.801 179.578 183.134 208.947 128.11C227.133 99.0499 245.01 69.7193 267.26 45.2642C273.18 38.7248 279.565 33.1914 286.491 28.7415C302.163 18.7196 353.24 -5.92896 340.857 72.8536C298.254 344.065 298.37 343.291 84.9689 342.711C82.918 342.711 82.5698 342.053 85.1236 340.505Z" fill="#3565B1"/>
</svg>
